/* XPM */
static char * lc_tiny_wide_font_xpm[] = {
"96 64 3 1",
" 	c #FFFFFFFFFFFF",
".	c #000000000000",
"                                                                                                ",
"                                                                                                ",
"                                                                                                ",
"                                                                                                ",
"                                           .....    .  .                                        ",
"                                     ..... .....   ..  ..                                       ",
"                               ..... ..... .....  ...  ...                                      ",
"                         ..... ..... ..... ..... ....  ....                                     ",
"                   ..... ..... ..... ..... ..... ....  ....                                     ",
"             ..... ..... ..... ..... ..... .....  ...  ...                                      ",
"       ..... ..... ..... ..... ..... ..... .....   ..  ..                                       ",
" ..... ..... ..... ..... ..... ..... ..... .....    .  .                                        ",
" $                                                                                              ",
"                                                                                                ",
"                                                                                                ",
"                                                                                                ",
"                                                                                                ",
"                                                                                                ",
"                                                                                                ",
"                                                                                                ",
"                                                                                                ",
"                                                                                                ",
"                                                                                                ",
"                                                                                                ",
" $                                                                                              ",
"                                                                                                ",
"                                                                                                ",
"                                                                                                ",
"                                                                                                ",
"                                                                                                ",
"         .    . .   . .   .... ..  .  ..    ..     ..   ..     .     .                         .",
"         .    . .  ..... . .   .  .  .  .    .    .       .  . . .   .                        . ",
"         .          . .  .....   .    .. .  .     .       .   ...  .....   ..  .....  ..     .  ",
"                   .....   . .  .  . .  .         .       .  . . .   .      .         ..    .   ",
"         .          . .  ....  .  ..  .. .         ..   ..     .     .     .               .    ",
"                                                                                                ",
" $                                                                                              ",
"                                                                                                ",
"                                                                                                ",
"                                                                                                ",
"                                                                                                ",
"                                                                                                ",
" .....  ..   ..... ..... .   . ..... ..... ..... ..... .....               .          .    .....",
" .  ..   .       .     . .   . .     .         . .   . .   .   .     .    ..   .....  ..       .",
" . . .   .   ..... ..... ..... ..... .....    .  ..... .....             ...          ...    .. ",
" ..  .   .   .         .     .     . .   .   .   .   .     .   .     .    ..   .....  ..        ",
" .....   .   ..... .....     . ..... .....  .    ..... .....        .      .          .      .  ",
"                                                                                                ",
" $                                                                                              ",
"                                                                                                ",
"                                                                                                ",
"                                                                                                ",
"                                                                                                ",
"  ...  ..... ..... ..... ....  ..... ..... ..... .   . ..... ....  .   . .     .   . .   . .....",
"     .     . .   . .     .   . .     .     .     .   .   .      .  .  .  .     .. .. ..  . .   .",
"  .. . ..... ....  .     .   . ..... ..... . ... .....   .      .  ...   .     . . . . . . .   .",
" . . . .   . .   . .     .   . .     .     .   . .   .   .   .  .  .  .  .     .   . .  .. .   .",
"  ...  ..... ..... ..... ....  ..... .     ..... .   . .....  ..   .   . ..... .   . .   . .....",
"                                                                                                ",
"                                                                                                ",
" $                                                                                              ",
"                                                                                                ",
"                                                                                                ",
"                                                                                                ",
"                                                                                                ",
"                                                                                                ",
" ....  ..... ....   .... ..... .   . .   . .   . .   . .   . .....  ...  .      ...    .        ",
" .   . .   . .   . .       .   .   . .   . .   .  . .  .   .    .   .     .       .   . .       ",
" ....  .   . ....  .....   .   .   . .   . . . .   .    . .    .    .      .      .  .   .      ",
" .     .  .. .  .      .   .   .   .  . .  . . .  . .    .    .     .       .     .             ",
" .     ..... .   . ....    .    ...    .    . .  .   .   .   .....  ...      .  ...        .....",
"                                                                                                ",
" $                                                                                              ",
"                                                                                                ",
"                                                                                                ",
"                                                                                                ",
"                                                                                                ",
"                                                                                                ",
"  ..   ..... ..... ..... ....  ..... ..... ..... .   . ..... ....  .   . .     .   . .   . .....",
"   .   .   . .   . .     .   . .     .     .     .   .   .      .  .  .  .     .. .. ..  . .   .",
"  .    ..... ....  .     .   . ..... ..... . ... .....   .      .  ...   .     . . . . . . .   .",
"       .   . .   . .     .   . .     .     .   . .   .   .   .  .  .  .  .     .   . .  .. .   .",
"       .   . ..... ..... ....  ..... .     ..... .   . .....  ..   .   . ..... .   . .   . .....",
"                                                                                                ",
" $                                                                                              ",
"                                                                                                ",
"                                                                                                ",
"                                                                                                ",
"                                                                                                ",
"                                                                                                ",
" ....  ..... ....   .... ..... .   . .   . .   . .   . .   . .....   ...   .   ...    .. .      ",
" .   . .   . .   . .       .   .   . .   . .   .  . .  .   .    .    .     .     .   .  .       ",
" ....  .   . ....  .....   .   .   . .   . . . .   .    . .    .    .      .      .             ",
" .     .  .. .  .      .   .   .   .  . .  . . .  . .    .    .      .     .     .              ",
" .     ..... .   . ....    .    ...    .    . .  .   .   .   .....   ...   .   ...              ",
"                                                                                                "};
