/* XPM */
static char * minitogsel_xpm[] = {
"16 272 2 1",
" 	c #FFFFFFFFFFFF",
".	c #000000000000",
"                ",
"                ",
"                ",
"                ",
"                ",
"                ",
"    .......     ",
"   . ..    .    ",
"  . ....    .   ",
"  .......   .   ",
"  . ....    .   ",
"   . ..    .    ",
"    .......     ",
"                ",
"                ",
"                ",
"                ",
"                ",
"                ",
"                ",
"                ",
"                ",
"    .......     ",
"   .    .. .    ",
"  .    .... .   ",
"  .   .......   ",
"  .    .... .   ",
"   .    .. .    ",
"    .......     ",
"                ",
"                ",
"                ",
"                ",
"                ",
"                ",
"      ...       ",
"     .   .      ",
"    .     .     ",
"    .     .     ",
"    .  .  .     ",
"    . ... .     ",
"    .......     ",
"    .......     ",
"    . ... .     ",
"     . . .      ",
"      ...       ",
"                ",
"                ",
"                ",
"                ",
"                ",
"      ...       ",
"     . . .      ",
"    . ... .     ",
"    .......     ",
"    .......     ",
"    . ... .     ",
"    .  .  .     ",
"    .     .     ",
"    .     .     ",
"     .   .      ",
"      ...       ",
"                ",
"                ",
"                ",
"                ",
"                ",
"                ",
"                ",
"  ...........   ",
"                ",
"                ",
"                ",
"                ",
"   .  ... ...   ",
"  . . .   .     ",
"  . . ..  ..    ",
"  . . .   .     ",
"   .  .   .     ",
"                ",
"                ",
"                ",
"    ..          ",
"   .  .         ",
"  .    .        ",
"  .    .    .   ",
"       .    .   ",
"        .  .    ",
"         ..     ",
"                ",
" .. ... ..  ... ",
".    .  . . .   ",
" .   .  . . ..  ",
"  .  .  . . .   ",
"..  ... . . ... ",
"                ",
"                ",
"                ",
"    .           ",
"   . .          ",
"  .   .         ",
" .     .     .  ",
"        .   .   ",
"         . .    ",
"          .     ",
"                ",
"  ... ..  ...   ",
"   .  . .  .    ",
"   .  ..   .    ",
"   .  . .  .    ",
"   .  . . ...   ",
"                ",
"                ",
"                ",
" .     .        ",
" ..    ..       ",
" . .   . .      ",
" .  .  .  .  .  ",
"     . .   . .  ",
"      ..    ..  ",
"       .     .  ",
"                ",
" ..  .  . .  .  ",
".   . . . . ..  ",
" .  ... ...  .  ",
"  . . . ...  .  ",
"..  . . . . ... ",
"                ",
"                ",
"                ",
"       .     .  ",
"      ..    ..  ",
"     . .   . .  ",
" .  .  .  .  .  ",
" . .   . .      ",
" ..    ..       ",
" .     .        ",
"                ",
" ..  .  . . ... ",
".   . . . .   . ",
" .  ... ... ... ",
"  . . . ... .   ",
"..  . . . . ... ",
"                ",
"                ",
"                ",
"  ......        ",
"  .    .        ",
"  .    .        ",
"  .    .    .   ",
"       .    .   ",
"       .    .   ",
"       ......   ",
"                ",
"   ..  .  ..    ",
"  .   . . . .   ",
"   .  . . ..    ",
"    . . . . .   ",
"  ..   .. . .   ",
"                ",
"                ",
"                ",
"       .        ",
"   .  ..   .    ",
"   .  .. . .    ",
"  ...........   ",
"  . .. .. . .   ",
"    .  ..   .   ",
"        .   .   ",
"                ",
"..   .  ...  .. ",
". . . .  .  .   ",
". . . .  .   .  ",
". . . .  .    . ",
". .  .  ... ..  ",
"                ",
"                ",
"                ",
"  ...           ",
"  . .     ...   ",
"  . . ... . .   ",
"  . . . . . .   ",
"    . . ...     ",
"    ...         ",
"                ",
"                ",
"   ..   . . .   ",
"  .     . . .   ",
"   .   .  ...   ",
"    . .   . .   ",
"  ..  .   . .   ",
"                ",
"                ",
"                ",
"  ...           ",
"  . .     ...   ",
"  . . ... . .   ",
"  . . . . . .   ",
"    . . ...     ",
"    ...         ",
"                ",
"                ",
"   ..   . . .   ",
"  .     . . .   ",
"   .   .  ...   ",
"    . .   . .   ",
"  ..  .   . .   ",
"                ",
"                ",
"                ",
"                ",
"                ",
"                ",
"  ...........   ",
"                ",
"                ",
"                ",
"                ",
"   .  ... ...   ",
"  . . .   .     ",
"  . . ..  ..    ",
"  . . .   .     ",
"   .  .   .     ",
"                ",
"                ",
"                ",
"                ",
"   .....        ",
"        .       ",
"         .      ",
"          .     ",
"           .    ",
"                ",
"                ",
"  .   ..  ...   ",
"  .   . . .     ",
"  .   ..  ..    ",
"  .   .   .     ",
"  ... .   .     ",
"                ",
"                ",
"                ",
"                ",
"      ...       ",
"     .   .      ",
"    .     .     ",
"   .       .    ",
"  .         .   ",
"                ",
"                ",
"  ..  ..  ...   ",
"  . . . . .     ",
"  ..  ..  ..    ",
"  . . .   .     ",
"  ..  .   .     ",
"                ",
"                ",
"                ",
"                ",
"       .....    ",
"      .         ",
"     .          ",
"    .           ",
"   .            ",
"                ",
"                ",
"  . . ..  ...   ",
"  . . . . .     ",
"  ... ..  ..    ",
"  . . .   .     ",
"  . . .   .     ",
"                "
};
