/* XPM */
static char * F:\Projets\bandmaster\font_PIX_xpm[] = {
"192 96 3 1",
" 	g #000000",
".	g #FFFFFF",
"+	g #555555",
"                                                                                                                                                                                                ",
"                                                                                                                                                                                                ",
"                                                                                                                                                                                                ",
"                                                                                                                                                                                                ",
"                                                                                                                                                                                                ",
"                                                                                                                                                                                                ",
"                                                                                                                                                                                                ",
"                                                                                                                                                                                                ",
"                                                                                                                                                                                                ",
"                                                                                                                                                                                                ",
"                                                                                                                                                                                                ",
"                                                                                                                                                                                                ",
"                                                                                                                                                                                                ",
"                                                                                                                                                                                                ",
"                                                                                                                      .                                .    .           .    .                  ",
"                                                                                                                                    .  .   .  .      .  .  .  .       .  .  .  .                ",
"                                                                                                                      . . .          .  . .  .       . ...... .       . ...... .                ",
"                                                                                                                   .  .               .     .        ... .. ...       ... .. ...                ",
"                                                                                                                       .. ..       ..         ..     ..........        .. .. ..                 ",
"                                                                                                                 .   . .. . .         .     .         ........         ........                 ",
"                                                                                                                   ........          .  . .  .         .    .          . .  . .                 ",
"                                                                                                                  .......... . .    .  .   .  .         .  .          ..      ..                ",
"                                                                                                                                                                                                ",
"                                                                                                                                                                                                ",
"                                                                                                                                                                                                ",
"  +++++++     ++++++     ++++++++    ++++++++    ++++ ++++    ++++++++    ++++++++   +++++++++    +++++++     +++++++      ++++                                                                 ",
" ++.....++   ++....+     +......++   +......++   +..+ +..+   ++......+   ++......+   +.......+   ++.....++   ++.....++     +..+                                                                 ",
" +.......+   +.....+     +.......+   +.......+   +..+ +..+   +.......+   +.......+   +.......+   +.......+   +.......+    ++..+                                                                 ",
" +..+++..+   +..+..+     ++++++..+   ++++++..+   +..+++..+   +..++++++   +..++++++   +++++...+   +..+++..+   +..+++..+    +...+                                                                 ",
" +..+.+..+   ++++..+     +.......+     +.....+   +.......+   +.......+   +......++     ++...++   +.......+   +.......+   ++...+                                                                 ",
" +..+.+..+      +..+     +.......+     +.....+   ++......+   +.......+   +.......+    ++...++    +.......+   ++......+   +...++                                                                 ",
" +..+++..+      +..+     +..++++++   ++++++..+    +++++..+   ++++++..+   +..+++..+   ++...++     +..+++..+   ++++++..+   +...+                                                                  ",
" +.......+      +..+     +.......+   +.......+        +..+   +.......+   +.......+   +...++      +.......+   +.......+   +..++                                                                  ",
" ++.....++      +..+     ++......+   +......++        +..+   +......++   ++.....++   +..++       ++.....++   +......++   +..+                                                                   ",
"  +++++++       ++++      ++++++++   ++++++++         ++++   ++++++++     +++++++    ++++         +++++++    ++++++++    ++++                                                                   ",
"                                                                                                                                                                                                ",
"                                                                                                                                                                                                ",
"  .......     ......     ........    ........    .... ....    ........    ........   .........    .......     .......      ....                                                                 ",
" ..     ..   ..    .     .      ..   .      ..   .  . .  .   ..      .   ..      .   .       .   ..     ..   ..     ..     .  .         .  .      .......        .                              ",
" .       .   .     .     .       .   .       .   .  . .  .   .       .   .       .   .       .   .       .   .       .    ..  .          ..      ..     ..      ...                             ",
" .  ...  .   .  .  .     ......  .   ......  .   .  ...  .   .  ......   .  ......   .....   .   .  ...  .   .  ...  .    .   .       . .... .   .       .      ...                             ",
" .  . .  .   ....  .     .       .     .     .   .       .   .       .   .      ..     ..   ..   .       .   .       .   ..   .       .. .. ..   . .. .. .      ...                             ",
" .  . .  .      .  .     .       .     .     .   ..      .   .       .   .       .    ..   ..    .       .   ..      .   .   ..       ........   . +. +. .   .........                          ",
" .  ...  .      .  .     .  ......   ......  .    .....  .   ......  .   .  ...  .   ..   ..     .  ...  .   ......  .   .   .        . .... .   .       .  ...........                         ",
" .       .      .  .     .       .   .       .        .  .   .       .   .       .   .   ..      .       .   .       .   .  ..        .  ..  .   ..     ..  ...........                         ",
" ..     ..      .  .     ..      .   .      ..        .  .   .      ..   ..     ..   .  ..       ..     ..   .      ..   .  .         ..    ..    .......   ...........                         ",
"  .......       ....      ........   ........         ....   ........     .......    ....         .......    ........    ....                                                                   ",
"                                                                                                                                                                                                ",
"                                                                                                                                                                                                ",
"  ........    ........   .........    .........  .........    .........   .........   .........  ....  ....  ..........        ....  ....  ....  ....         ........    ........    ........  ",
" ..      ..  ..      ..  .       .   ..       .  .       ..  ..       .  ..       .  ..       .  .  .  .  .  .        .        .  .  .  .  .  .  .  .        ..      ..  ..      ..  ..      .. ",
" .  ....  .  .        .  .           .        .  .        .  .        .  .        .  .        .  .  .  .  .  .        .        .  .  .  . ..  .  .  .        .        .  .        .  .        . ",
" . .      .  .  ....  .  .  ....     .   ......  .  ...   .  .  .......  .  .......  .  .......  .  ....  .  ....  ....        .  .  .  ...  ..  .  .        .  .  .  .  .   ..   .  .  ....  . ",
" . .      .  .        .  .           .  ..       .  . ..  .  .     .     .     .     .  .     .  .        .     .  .     ....  .  .  .       .   .  .        .  .  .  .  .  ....  .  .  .  .  . ",
" . . ..   .  .        .  .           .  ..       .  . ..  .  .     .     .     .     .  .     .  .        .     .  .     .  ....  .  .       .   .  .        .  ....  .  .  .  .  .  .  .  .  . ",
" . .  .   .  .  ....  .  .  ....     .   ......  .  ...   .  .  .......  .  ....     .  ....  .  .  ....  .  ....  ....  .   ..   .  .  ...  ..  .  .......  .  .  .  .  .  .  .  .  .  ....  . ",
" .        .  .  .  .  .  .           .        .  .        .  .        .  .  .        .        .  .  .  .  .  .        .  .        .  .  . ..  .  .        .  .  .  .  .  .  .  .  .  .        . ",
" ..      ..  .  .  .  .  .       .   ..       .  .       ..  ..       .  .  .        ..       .  .  .  .  .  .        .  ..      ..  .  .  .  .  .        .  .  .  .  .  .  .  .  .  ..      .. ",
"  ........   ....  ....  .........    .........  .........    .........  ....         .........  ....  ....  ..........   ........   ....  ....  ..........  ....  ....  ....  ....   ........  ",
"                                                                                                                                                                                                ",
"                                                                                                                                                                                                ",
" .........    ........   .........    .........  ..........  ....  ....  ....  ....  ....  ....  ....  ....  ....  ....  ..........       ....                ....                              ",
" .       ..  ..      ..  .       ..  ..       .  .        .  .  .  .  .  .  .  .  .  .  .  .  .  .  .  .  .  .  .  .  .  .        .       .  .                .  .                              ",
" .        .  .        .  .        .  .        .  .        .  .  .  .  .  .  .  .  .  .  .  .  .  .  ....  .  .  ....  .  .        .       . ..                .. .                              ",
" .  ....  .  .  ....  .  .  ....  .  .  .......  ....  ....  .  .  .  .  .  .  .  .  .  .  .  .  .   ..   .  .   ..   .  .   ......       . .                  . .                              ",
" .  ....  .  .  .  .  .  .  .     .  .        .     .  .     .  .  .  .  .  .  .  .  .  ....  .  ..      ..  ..      ..  ..     ..        . .                  . .                              ",
" .  .     .  .  .  .  .  .  .     .  .        .     .  .     .  .  .  .  .  ....  .  .  .  .  .  ..      ..   ..    ..    ..     ..       . .                  . .                              ",
" .  .    ..  .  ....  .  .  ....  .  .......  .     .  .     .  ....  .  .   ..   .  .  .  .  .  .   ..   .    ..  ..    ......   .       . .                  . .                              ",
" .  ......   .     .  .  .  .  .  .  .        .     .  .     .        .  ..      ..  .        .  .  ....  .     .  .     .        .       . ..                .. .                              ",
" .  .        ..    .  .  .  .  .  .  .       ..     .  .     .        .   ..    ..   ..      ..  .  .  .  .     .  .     .        .       .  .                .  .                              ",
" ....         .........  ....  ....  .........      ....     ..........    ......     ........   ....  ....     ....     ..........       ....                ....                              ",
"                                                                                                                                                                                                ",
"                                                                                                                                                                                                ",
"  ++++++++    ++++++++   +++++++++    +++++++++  +++++++++    +++++++++   +++++++++   +++++++++  ++++  ++++  ++++++++++        ++++  ++++  ++++  ++++         ++++++++    ++++++++    ++++++++  ",
" ++......++  ++......++  +.......+   ++.......+  +.......++  ++.......+  ++.......+  ++.......+  +..+  +..+  +........+        +..+  +..+  +..+  +..+        ++......++  ++......++  ++......++ ",
" +..++++..+  +........+  +........   +........+  +........+  +........+  +........+  +........+  +..+  +..+  +........+        +..+  +..+ ++..+  +..+        +........+  +........+  +........+ ",
" +.+......+  +..++++..+  +..++++..   +...++++++  +..+++...+  +..+++++++  +..+++++++  +..+++++++  +..++++..+  ++++..++++        +..+  +..+++..++  +..+        +..+..+..+  +...++...+  +..++++..+ ",
" +.+......+  +........+  +........   +..++       +..+ ++..+  +.....+     +.....+     +..+.....+  +........+     +..+     ++++  +..+  +.......+   +..+        +..+..+..+  +..++++..+  +..+  +..+ ",
" +.+.++...+  +........+  +........   +..++       +..+ ++..+  +.....+     +.....+     +..+.....+  +........+     +..+     +..++++..+  +.......+   +..+        +..++++..+  +..+  +..+  +..+  +..+ ",
" +.+..+...+  +..++++..+  +..++++..   +...++++++  +..+++...+  +..+++++++  +..++++     +..++++..+  +..++++..+  ++++..++++  +...++...+  +..+++..++  +..+++++++  +..+  +..+  +..+  +..+  +..++++..+ ",
" +........+  +..+  +..+  +........   +........+  +........+  +........+  +..+        +........+  +..+  +..+  +........+  +........+  +..+ ++..+  +........+  +..+  +..+  +..+  +..+  +........+ ",
" ++......++  +..+  +..+  +.......+   ++.......+  +.......++  ++.......+  +..+        ++.......+  +..+  +..+  +........+  ++......++  +..+  +..+  +........+  +..+  +..+  +..+  +..+  ++......++ ",
"  ++++++++   ++++  ++++  +++++++++    +++++++++  +++++++++    +++++++++  ++++         +++++++++  ++++  ++++  ++++++++++   ++++++++   ++++  ++++  ++++++++++  ++++  ++++  ++++  ++++   ++++++++  ",
"                                                                                                                                                                                                ",
"                                                                                                                                                                                                ",
" +++++++++    ++++++++   +++++++++    +++++++++  ++++++++++  ++++  ++++  ++++  ++++  ++++  ++++  ++++  ++++  ++++  ++++  ++++++++++       ++++                ++++                              ",
" +.......++  ++......++  +.......++  ++.......+  +........+  +..+  +..+  +..+  +..+  +..+  +..+  +..+  +..+  +..+  +..+  +........+       +..+    +++++++     +..+                              ",
" +........+  +........+  +........+  +........+  +........+  +..+  +..+  +..+  +..+  +..+  +..+  +..++++..+  +..++++..+  +........+       +.++   ++.....++    ++.+                              ",
" +..++++..+  +..++++..+  +..++++..+  +..+++++++  ++++..++++  +..+  +..+  +..+  +..+  +..+  +..+  +...++...+  +...++...+  +...++++++       +.+    +.......+     +.+                              ",
" +..++++..+  +..+  +..+  +..+.....+  +........+     +..+     +..+  +..+  +..+  +..+  +..++++..+  ++......++  ++......++  ++.....++        +.+    +.++.++.+     +.+                              ",
" +..+.....+  +..+  +..+  +..+.....+  +........+     +..+     +..+  +..+  +..++++..+  +..+..+..+  ++......++   ++....++    ++.....++       +.+    +. +. +.+     +.+                              ",
" +..+....++  +..++++..+  +..++++..+  +++++++..+     +..+     +..++++..+  +...++...+  +..+..+..+  +...++...+    ++..++    ++++++...+       +.+    +.......+     +.+                              ",
" +..++++++   +.....+..+  +..+  +..+  +........+     +..+     +........+  ++......++  +........+  +..++++..+     +..+     +........+       +.++   ++.....++    ++.+                              ",
" +..+        ++....+..+  +..+  +..+  +.......++     +..+     +........+   ++....++   ++......++  +..+  +..+     +..+     +........+       +..+    +++++++     +..+                              ",
" ++++         +++++++++  ++++  ++++  +++++++++      ++++     ++++++++++    ++++++     ++++++++   ++++  ++++     ++++     ++++++++++       ++++                ++++                              ",
"                                                                                                                                                                                                "};
