/* XPM */
static char *_4993bc56e6e4336efbab8dcb51bc35eCNxGYe1Wwx0Ix9oF[] = {
"128 128 2 1",
"   c #FFFFFFFFFFFF",
".  c #000000000000",
"                                                                .....       .   .                                               ",
"                                                        .....   .   .      ..   ..                                              ",
"                                                .....   .   .             ...   ...                                             ",
"                                        .....   .   .           .   .    ....   ....                                            ",
"                                .....   .   .           .   .           .....   .....                                           ",
"                        .....   .   .           .   .           .   .    ....   ....                                            ",
"                .....   .   .           .   .           .   .             ...   ...                                             ",
"        .....   .   .                                                      ..   ..                                              ",
".....   .   .   .   .   .   .   .   .   .   .   .   .   .   .   .   .       .   .                                               ",
"                                                                                                                                ",
"                                                                                                                                ",
"                                                                                                                                ",
"                                                                                                                                ",
"                                                                                                                                ",
"                                                                                                                                ",
"                                                                                                                                ",
"                                                                                                                                ",
"                ...                                                                                                             ",
".         .     . .                                                                                                             ",
"..       ..     ...                                                                                                             ",
"...     ...                                                                                                     .....     .     ",
"..       ..                                                                                                      ...     ...    ",
".         .                                                                                                       .     .....   ",
"                                                                                                                                ",
"                                                                                                                                ",
"                                                                                                                                ",
"                                                                                                                                ",
"                                                                                                                                ",
"                                                                                                                                ",
"                                                                                                                                ",
"                                                                                                                                ",
"                                                                                                                                ",
"        .       . .                               .     ..       .      .                                                       ",
"        .       . .               .      .   .   . .     .      .        .                                                      ",
"        .       . .      . .    .....   . . .    . .    .       .        .      . . .     .                                     ",
"        .               .....   . .      . .     ..             .        .       ...      .                                .    ",
"        .                . .    .....      . .  . . .           .        .      .....   .....           .....             .     ",
"                        .....     . .     . . . .  ..           .        .       ...      .                     ..       .      ",
"        .                . .    .....    .   .   .. ..          .        .      . . .     .     ..              ..      .       ",
"                                  .                             .        .                       .                              ",
"                                                                 .      .                       .                               ",
"                                                                                                                                ",
"                                                                                                                                ",
"                                                                                                                                ",
"                                                                                                                                ",
"                                                                                                                                ",
"                                                                                                                                ",
"                                                                                                                                ",
"                                                                                                                                ",
"                                                                                                                        .....   ",
".....   ..      .....   .....   .   .   .....   .....   .....   .....   .....                     .              .          .   ",
".   .    .          .       .   .   .   .       .           .   .   .   .   .   .       .        .      .....     .       ...   ",
". . .    .      .....    ....   .....   .....   .....       .   .....   .....                   .                  .      .     ",
".   .    .      .           .       .       .   .   .       .   .   .       .                    .      .....     .             ",
".....    .      .....   .....       .   .....   .....       .   .....   .....   .       .         .              .        .     ",
"                                                                                        .                                       ",
"                                                                                                                                ",
"                                                                                                                                ",
"                                                                                                                                ",
"                                                                                                                                ",
"                                                                                                                                ",
"                                                                                                                                ",
"                                                                                                                                ",
"                                                                                                                                ",
"                .                   .                           .       .        .      .       .                               ",
"  ...           .                   .                           .                       .       .                               ",
" .   .  .....   .....   .....   .....   .....   .....   .....   .....   .        .      .   .   .       .....   .....   .....   ",
".  .  .     .   .   .   .       .   .   .   .   .       .   .   .   .   .        .      .  .    .       . . .   .   .   .   .   ",
". . . . .....   .   .   .       .   .   .....   ....    .   .   .   .   .        .      ...     .       . . .   .   .   .   .   ",
". . . . .   .   .   .   .       .   .   .       .       .   .   .   .   .        .      .  .    .       . . .   .   .   .   .   ",
".  . .  .....   .....   .....   .....   .....   .       .....   .   .   .        .      .   .   ..      . . .   .   .   .....   ",
" ...                                            .           .                    .                                              ",
"                                                .       .....                   ..                                              ",
"                                                                                                                                ",
"                                                                                                                                ",
"                                                                                                                                ",
"                                                                                                                                ",
"                                                                                                                                ",
"                                                                                                                                ",
"                                                                                                                                ",
"                                .                                                                                               ",
"                                .                                                       ..              ..       .              ",
".....   .....   .....   .....   ...     .   .   .   .   .   .   .   .   .   .   .....   .       .        .      . .             ",
".   .   .   .   .       .       .       .   .   .   .   . . .    . .    .   .      .    .        .       .                      ",
".   .   .   .   .       .....   .       .   .   .   .   . . .     .     .   .     .     .         .      .                      ",
".   .   .   .   .           .   .       .   .    . .    . . .    . .    .   .    .      .          .     .                      ",
".....   .....   .       .....   .....   .....     .     .....   .   .   .....   .....   .           .    .                      ",
".           .                                                               .           ..              ..              .....   ",
".           .                                                           .....                                                   ",
"                                                                                                                                ",
"                                                                                                                                ",
"                                                                                                                                ",
"                                                                                                                                ",
"                                                                                                                                ",
"                                                                                                                                ",
"                                                                                                                                ",
".               .                   .                           .        .       .      .       .                               ",
".               .                   .                           .                       .       .                               ",
".       .....   .....   .....   .....   .....   .....   .....   .....    .       .      .   .   .       .....   .....   .....   ",
"            .   .   .   .       .   .   .   .   .       .   .   .   .    .       .      .  .    .       . . .   .   .   .   .   ",
"        .....   .   .   .       .   .   .....   ....    .   .   .   .    .       .      ...     .       . . .   .   .   .   .   ",
"        .   .   .   .   .       .   .   .       .       .   .   .   .    .       .      .  .    .       . . .   .   .   .   .   ",
"        .....   .....   .....   .....   .....   .       .....   .   .    .       .      .   .   ..      . . .   .   .   .....   ",
"                                                .           .                    .                                              ",
"                                                .       .....                   ..                                              ",
"                                                                                                                                ",
"                                                                                                                                ",
"                                                                                                                                ",
"                                                                                                                                ",
"                                                                                                                                ",
"                                                                                                                                ",
"                                                                                                                                ",
"                                .                                                         .     .       .               ..      ",
"                                .                                                        .      .        .              ..      ",
".....   .....   .....   .....   ...     .   .   .   .   .   .   .   .   .   .   .....    .      .        .                      ",
".   .   .   .   .       .       .       .   .   .   .   . . .    . .    .   .      .     .      .        .                      ",
".   .   .   .   .       .....   .       .   .   .   .   . . .     .     .   .     .     .       .         .      .. .           ",
".   .   .   .   .           .   .       .   .    . .    . . .    . .    .   .    .       .      .        .      .  .            ",
".....   .....   .       .....   .....   .....     .     .....   .   .   .....   .....    .      .        .                      ",
".           .                                                               .            .      .        .                      ",
".           .                                                           .....             .             .                       ",
"                                                                                                                                ",
"                                                                                                                                ",
"                                                                                                                                ",
"                                                                                                                                ",
"                                                                                                                                ",
"                                                                                                                                ",
"                                                                                                                                "
};
