/* XPM */
static char * lc_tiny_font_xpm[] = {
"64 64 2 1",
" 	c #FFFFFFFFFFFF",
".	c #000000000000",
"                                                                ",
"                                                                ",
"                                                                ",
"            .   .   .   ..  ...                                 ",
"        .   .   .   ..  ..  ...  .   .                          ",
"    .   .   .   ..  ..  ... ... ..   ..                         ",
"... ... ... ... ... ... ... ...  .   .                          ",
"                                                                ",
"                                                                ",
"                                                                ",
"                                                                ",
"            .   .   .   ..  ...                                 ",
"        .   .   .   ..  ..  ...                                 ",
"    .   .   .   ..  ..  ... ...                                 ",
"... ... ... ... ... ... ... ...                                 ",
"                                                                ",
"                                                                ",
"                                                                ",
"     .  . . . .     . .  .   .   .  .                         . ",
"     .  . . ...       . . .  .  .    .  . .  .                . ",
"     .      . .      .   .  .   .    .   .  ...     ...      .  ",
"            ...     .   . .     .    .  . .  .   .          .   ",
"     .      . .     . .  ..      .  .           .       .   .   ",
"                                                                ",
"                                                                ",
"                                                                ",
"...  .  ... ... .   ... ..  ... ... ...           .     .   ..  ",
". . ..    .   . . . .   .     . . . . .  .   .   .  ...  .    . ",
". .  .  ...  .. ... ... ...  .  ... ...         .         .  .  ",
". .  .  .     .   .   . . .  .  . .   .  .   .   .  ...  .      ",
"... ... ... ...   . ... ...  .  ... ...     .     .     .    .  ",
"                                                                ",
"                                                                ",
"                                                                ",
" ..  .  ..   .. ..  ... ...  .. . . ...  .. . . .   ... ..   .  ",
". . . . . . .   . . .   .   .   . .  .    . . . .   . . . . . . ",
"... ... ..  .   . . ..  ..  . . ...  .    . ..  .   . . . . . . ",
".   . . . . .   . . .   .   . . . .  .  . . . . .   . . . . . . ",
" .  . . ..   .. ..  ... .    .. . . ...  .  . . ... . . . .  .  ",
"                                                                ",
"                                                                ",
"                                                                ",
"..   .  ..   .. ... . . . . . . . . . . ... ..  .    ..  .      ",
". . . . . . .    .  . . . . . . . . . .   . .   .     . . .     ",
"..  . . ..   .   .  . . . . ...  .  ...  .  .    .    .         ",
".   . . . .   .  .  . . . . ... . .  .  .   .     .   .         ",
".    .. . . ..   .  ..   .  . . . .  .  ... ..    .  ..         ",
"                                                            ... ",
"                                                                ",
"                                                                ",
".    .  ..   .. ..  ... ...  .. . . ...  .. . . .   ... ..   .  ",
" .  . . . . .   . . .   .   .   . .  .    . . . .   . . . . . . ",
"    ... ..  .   . . ..  ..  . . ...  .    . ..  .   . . . . . . ",
"    . . . . .   . . .   .   . . . .  .  . . . . .   . . . . . . ",
"    . . ..   .. ..  ... .    .. . . ...  .  . . ... . . . .  .  ",
"                                                                ",
"                                                                ",
"                                                 .              ",
"..   .  ..   .. ... . . . . . . . . . . ...  ..  .  ..  ..      ",
". . . . . . .    .  . . . . . . . . . .   .  .   .   .   ..     ",
"..  . . ..   .   .  . . . . ...  .  ...  .  .    .    .         ",
".   . . . .   .  .  . . . . ... . .  .  .    .   .   .          ",
".    .. . . ..   .  ..   .  . . . .  .  ...  ..  .  ..          ",
"                                                 .              "};
