/* XPM */
static char * miniknobs_xpm[] = {
"16 512 2 1",
" 	c #FFFFFFFFFFFF",
".	c #000000000000",
"                ",
"                ",
"       .        ",
"                ",
"      ...       ",
"    ..   ..     ",
"   .       .    ",
"   .       .    ",
"  .         .   ",
"  .         .   ",
"  .         .   ",
"   . ...   .    ",
"   .  ..   .    ",
"    ..   ..     ",
"  .   ...   .   ",
"                ",
"                ",
"                ",
"       .        ",
"                ",
"      ...       ",
"    ..   ..     ",
"   .       .    ",
"   .       .    ",
"  .         .   ",
"  .         .   ",
"  .  .      .   ",
"   . ..    .    ",
"   .  .    .    ",
"    ..   ..     ",
"  .   ...   .   ",
"                ",
"                ",
"                ",
"       .        ",
"                ",
"      ...       ",
"    ..   ..     ",
"   .       .    ",
"   .       .    ",
"  .         .   ",
"  .         .   ",
"  . ..      .   ",
"   . ..    .    ",
"   .  .    .    ",
"    ..   ..     ",
"  .   ...   .   ",
"                ",
"                ",
"                ",
"       .        ",
"                ",
"      ...       ",
"    ..   ..     ",
"   .       .    ",
"   .       .    ",
"  .         .   ",
"  .         .   ",
"  . ..      .   ",
"   . ..    .    ",
"   .       .    ",
"    ..   ..     ",
"  .   ...   .   ",
"                ",
"                ",
"                ",
"       .        ",
"                ",
"      ...       ",
"    ..   ..     ",
"   .       .    ",
"   .       .    ",
"  .         .   ",
"  . ..      .   ",
"  . ..      .   ",
"   . ..    .    ",
"   .       .    ",
"    ..   ..     ",
"  .   ...   .   ",
"                ",
"                ",
"                ",
"       .        ",
"                ",
"      ...       ",
"    ..   ..     ",
"   .       .    ",
"   .       .    ",
"  .         .   ",
"  . ..      .   ",
"  . ..      .   ",
"   . .     .    ",
"   .       .    ",
"    ..   ..     ",
"  .   ...   .   ",
"                ",
"                ",
"                ",
"       .        ",
"                ",
"      ...       ",
"    ..   ..     ",
"   .       .    ",
"   .       .    ",
"  . .       .   ",
"  . ..      .   ",
"  . ..      .   ",
"   .       .    ",
"   .       .    ",
"    ..   ..     ",
"  .   ...   .   ",
"                ",
"                ",
"                ",
"       .        ",
"                ",
"      ...       ",
"    ..   ..     ",
"   .       .    ",
"   .       .    ",
"  . ..      .   ",
"  . ..      .   ",
"  . ..      .   ",
"   .       .    ",
"   .       .    ",
"    ..   ..     ",
"  .   ...   .   ",
"                ",
"                ",
"                ",
"       .        ",
"                ",
"      ...       ",
"    ..   ..     ",
"   .       .    ",
"   .       .    ",
"  . ..      .   ",
"  . ..      .   ",
"  . .       .   ",
"   .       .    ",
"   .       .    ",
"    ..   ..     ",
"  .   ...   .   ",
"                ",
"                ",
"                ",
"       .        ",
"                ",
"      ...       ",
"    ..   ..     ",
"   .       .    ",
"   . .     .    ",
"  . ..      .   ",
"  . ..      .   ",
"  .         .   ",
"   .       .    ",
"   .       .    ",
"    ..   ..     ",
"  .   ...   .   ",
"                ",
"                ",
"                ",
"       .        ",
"                ",
"      ...       ",
"    ..   ..     ",
"   .       .    ",
"   . ..    .    ",
"  . ..      .   ",
"  .         .   ",
"  .         .   ",
"   .       .    ",
"   .       .    ",
"    ..   ..     ",
"  .   ...   .   ",
"                ",
"                ",
"                ",
"       .        ",
"                ",
"      ...       ",
"    ..   ..     ",
"   .  .    .    ",
"   . ..    .    ",
"  . ..      .   ",
"  .         .   ",
"  .         .   ",
"   .       .    ",
"   .       .    ",
"    ..   ..     ",
"  .   ...   .   ",
"                ",
"                ",
"                ",
"       .        ",
"                ",
"      ...       ",
"    ..   ..     ",
"   .  .    .    ",
"   . ..    .    ",
"  .  .      .   ",
"  .         .   ",
"  .         .   ",
"   .       .    ",
"   .       .    ",
"    ..   ..     ",
"  .   ...   .   ",
"                ",
"                ",
"                ",
"       .        ",
"                ",
"      ...       ",
"    ..   ..     ",
"   .  ..   .    ",
"   . ...   .    ",
"  .  .      .   ",
"  .         .   ",
"  .         .   ",
"   .       .    ",
"   .       .    ",
"    ..   ..     ",
"  .   ...   .   ",
"                ",
"                ",
"                ",
"       .        ",
"                ",
"      ...       ",
"    ..   ..     ",
"   .  ..   .    ",
"   . ...   .    ",
"  .         .   ",
"  .         .   ",
"  .         .   ",
"   .       .    ",
"   .       .    ",
"    ..   ..     ",
"  .   ...   .   ",
"                ",
"                ",
"                ",
"       .        ",
"                ",
"      ...       ",
"    ..   ..     ",
"   .  ...  .    ",
"   .  ..   .    ",
"  .         .   ",
"  .         .   ",
"  .         .   ",
"   .       .    ",
"   .       .    ",
"    ..   ..     ",
"  .   ...   .   ",
"                ",
"                ",
"                ",
"       .        ",
"                ",
"      ...       ",
"    ..   ..     ",
"   .  ...  .    ",
"   .  ...  .    ",
"  .         .   ",
"  .         .   ",
"  .         .   ",
"   .       .    ",
"   .       .    ",
"    ..   ..     ",
"  .   ...   .   ",
"                ",
"                ",
"                ",
"       .        ",
"                ",
"      ...       ",
"    ..   ..     ",
"   .  ...  .    ",
"   .   ..  .    ",
"  .         .   ",
"  .         .   ",
"  .         .   ",
"   .       .    ",
"   .       .    ",
"    ..   ..     ",
"  .   ...   .   ",
"                ",
"                ",
"                ",
"       .        ",
"                ",
"      ...       ",
"    ..   ..     ",
"   .   ..  .    ",
"   .   ... .    ",
"  .         .   ",
"  .         .   ",
"  .         .   ",
"   .       .    ",
"   .       .    ",
"    ..   ..     ",
"  .   ...   .   ",
"                ",
"                ",
"                ",
"       .        ",
"                ",
"      ...       ",
"    ..   ..     ",
"   .   ..  .    ",
"   .   ... .    ",
"  .      .  .   ",
"  .         .   ",
"  .         .   ",
"   .       .    ",
"   .       .    ",
"    ..   ..     ",
"  .   ...   .   ",
"                ",
"                ",
"                ",
"       .        ",
"                ",
"      ...       ",
"    ..   ..     ",
"   .    .  .    ",
"   .    .. .    ",
"  .      .  .   ",
"  .         .   ",
"  .         .   ",
"   .       .    ",
"   .       .    ",
"    ..   ..     ",
"  .   ...   .   ",
"                ",
"                ",
"                ",
"       .        ",
"                ",
"      ...       ",
"    ..   ..     ",
"   .    .  .    ",
"   .    .. .    ",
"  .      .. .   ",
"  .         .   ",
"  .         .   ",
"   .       .    ",
"   .       .    ",
"    ..   ..     ",
"  .   ...   .   ",
"                ",
"                ",
"                ",
"       .        ",
"                ",
"      ...       ",
"    ..   ..     ",
"   .       .    ",
"   .    .. .    ",
"  .      .. .   ",
"  .         .   ",
"  .         .   ",
"   .       .    ",
"   .       .    ",
"    ..   ..     ",
"  .   ...   .   ",
"                ",
"                ",
"                ",
"       .        ",
"                ",
"      ...       ",
"    ..   ..     ",
"   .       .    ",
"   .     . .    ",
"  .      .. .   ",
"  .      .. .   ",
"  .         .   ",
"   .       .    ",
"   .       .    ",
"    ..   ..     ",
"  .   ...   .   ",
"                ",
"                ",
"                ",
"       .        ",
"                ",
"      ...       ",
"    ..   ..     ",
"   .       .    ",
"   .       .    ",
"  .      .. .   ",
"  .      .. .   ",
"  .       . .   ",
"   .       .    ",
"   .       .    ",
"    ..   ..     ",
"  .   ...   .   ",
"                ",
"                ",
"                ",
"       .        ",
"                ",
"      ...       ",
"    ..   ..     ",
"   .       .    ",
"   .       .    ",
"  .      .. .   ",
"  .      .. .   ",
"  .      .. .   ",
"   .       .    ",
"   .       .    ",
"    ..   ..     ",
"  .   ...   .   ",
"                ",
"                ",
"                ",
"       .        ",
"                ",
"      ...       ",
"    ..   ..     ",
"   .       .    ",
"   .       .    ",
"  .         .   ",
"  .      .. .   ",
"  .      .. .   ",
"   .     . .    ",
"   .       .    ",
"    ..   ..     ",
"  .   ...   .   ",
"                ",
"                ",
"                ",
"       .        ",
"                ",
"      ...       ",
"    ..   ..     ",
"   .       .    ",
"   .       .    ",
"  .         .   ",
"  .      .. .   ",
"  .      .. .   ",
"   .    .. .    ",
"   .       .    ",
"    ..   ..     ",
"  .   ...   .   ",
"                ",
"                ",
"                ",
"       .        ",
"                ",
"      ...       ",
"    ..   ..     ",
"   .       .    ",
"   .       .    ",
"  .         .   ",
"  .         .   ",
"  .      .. .   ",
"   .    .. .    ",
"   .       .    ",
"    ..   ..     ",
"  .   ...   .   ",
"                ",
"                ",
"                ",
"       .        ",
"                ",
"      ...       ",
"    ..   ..     ",
"   .       .    ",
"   .       .    ",
"  .         .   ",
"  .         .   ",
"  .      .. .   ",
"   .    .. .    ",
"   .    .  .    ",
"    ..   ..     ",
"  .   ...   .   ",
"                ",
"                ",
"                ",
"       .        ",
"                ",
"      ...       ",
"    ..   ..     ",
"   .       .    ",
"   .       .    ",
"  .         .   ",
"  .         .   ",
"  .      .  .   ",
"   .    .. .    ",
"   .    .  .    ",
"    ..   ..     ",
"  .   ...   .   ",
"                ",
"                ",
"                ",
"       .        ",
"                ",
"      ...       ",
"    ..   ..     ",
"   .       .    ",
"   .       .    ",
"  .         .   ",
"  .         .   ",
"  .         .   ",
"   .   ... .    ",
"   .   ..  .    ",
"    ..   ..     ",
"  .   ...   .   ",
"                "
};
